ply
format ascii 1.0
element vertex 266
property float x
property float y
property float z
end_header
0.000000 0.000000 0.000000
-0.000929 -0.010833 -0.009324
-0.000640 -0.012100 -0.010003
-0.000923 -0.023895 -0.020314
-0.000105 -0.032769 -0.034938
-0.009199 -0.070780 0.034592
-0.014731 -0.087656 0.088777
-0.017457 -0.098819 0.141637
-0.026769 -0.103358 0.149626
-0.024505 -0.144417 0.175910
-0.013520 -0.193046 0.264075
-0.007236 -0.187190 0.286024
-0.004283 -0.176315 0.296536
-0.024372 -0.201015 0.323161
-0.014122 -0.226122 0.333937
0.017001 -0.259033 0.355596
0.039274 -0.287816 0.349060
0.030287 -0.311156 0.346467
0.027547 -0.335439 0.341457
0.017526 -0.359907 0.335233
0.018300 -0.382281 0.338123
0.034365 -0.379820 0.361602
0.055379 -0.406881 0.362381
0.060637 -0.410154 0.378331
0.066452 -0.409340 0.385770
0.072511 -0.417691 0.382287
0.103739 -0.438206 0.394995
0.118992 -0.448294 0.387687
0.123242 -0.470974 0.380193
0.148317 -0.499995 0.383195
0.183053 -0.524231 0.398175
0.193587 -0.531483 0.395951
0.190390 -0.563597 0.367259
0.160389 -0.585619 0.356465
0.143337 -0.607120 0.361157
0.185635 -0.581668 0.365470
0.202266 -0.581553 0.370411
0.219606 -0.581586 0.384496
0.245485 -0.584171 0.394751
0.280504 -0.582766 0.412867
0.286744 -0.578989 0.414477
0.289257 -0.579893 0.417051
0.292704 -0.591822 0.412872
0.283156 -0.595022 0.420316
0.278256 -0.597057 0.413074
0.275846 -0.597163 0.409905
0.273162 -0.589361 0.411927
0.277404 -0.592183 0.408095
0.277623 -0.596178 0.403581
0.284210 -0.592896 0.402851
0.291165 -0.606032 0.391477
0.296590 -0.614071 0.388054
0.342025 -0.616299 0.393101
0.375311 -0.627644 0.394938
0.430137 -0.627433 0.400031
0.427195 -0.640427 0.395568
0.486458 -0.646476 0.393595
0.540843 -0.638044 0.392864
0.643559 -0.668348 0.424345
0.738309 -0.681748 0.427747
0.833429 -0.686488 0.451111
0.843930 -0.709158 0.437439
0.855106 -0.693954 0.448970
0.863929 -0.700575 0.457834
0.881661 -0.717058 0.468566
0.950077 -0.711137 0.473675
0.960905 -0.710909 0.472552
0.999516 -0.709255 0.489636
1.036858 -0.729251 0.490971
1.046726 -0.755195 0.504897
1.053173 -0.751796 0.513601
1.060535 -0.769178 0.521471
1.097444 -0.766101 0.547086
1.087535 -0.799428 0.559798
1.078722 -0.818738 0.553522
1.071572 -0.831090 0.529998
1.083592 -0.809471 0.564929
1.090194 -0.813217 0.572386
1.094491 -0.809207 0.589779
1.101266 -0.806401 0.601023
1.108662 -0.816644 0.614832
1.099049 -0.821587 0.621641
1.086754 -0.834020 0.652669
1.084186 -0.859293 0.683017
1.089947 -0.884243 0.684468
1.057650 -0.920604 0.692309
1.055451 -0.934710 0.714852
1.047411 -0.949863 0.789403
1.034477 -0.965159 0.829797
1.028078 -0.988151 0.886482
1.034501 -1.003943 0.904776
1.041205 -1.030895 0.948631
1.009224 -1.060855 0.927749
1.006587 -1.066766 0.917075
1.012207 -1.071629 0.972620
1.038659 -1.087135 1.027578
1.034439 -1.095414 1.056150
1.020657 -1.085027 1.058370
1.018143 -1.085169 1.083987
1.011532 -1.066707 1.076855
0.983337 -1.054126 1.064984
0.985890 -1.062973 1.058779
0.998792 -1.081013 1.056560
1.003338 -1.099876 1.054191
1.009722 -1.124831 1.045030
0.990708 -1.130848 1.056531
0.983471 -1.124531 1.066565
0.981648 -1.122305 1.070143
0.981006 -1.121357 1.071788
0.980329 -1.127385 1.076995
0.980326 -1.127758 1.076762
0.983558 -1.128722 1.071233
0.985550 -1.127101 1.068596
0.986391 -1.121610 1.067991
0.988513 -1.107463 1.059421
0.990132 -1.101970 1.047184
1.006810 -1.091860 1.043315
1.022006 -1.068438 1.063257
1.026387 -1.039282 1.107491
1.025054 -1.018568 1.126382
1.035923 -1.013332 1.107801
1.049727 -0.991730 1.041214
1.049714 -0.987803 0.994332
1.046524 -0.969817 0.968373
1.050564 -0.953735 0.928442
1.049833 -0.916041 0.881811
1.063943 -0.925097 0.861966
1.056852 -0.942642 0.866113
1.068579 -0.898161 0.843325
1.067023 -0.893525 0.798473
1.080394 -0.871106 0.752097
1.085058 -0.872914 0.707028
1.078419 -0.909221 0.712529
1.070239 -0.924640 0.713307
1.085208 -0.871333 0.690451
1.092235 -0.848287 0.683789
1.102868 -0.836038 0.672893
1.102564 -0.813287 0.653479
1.106477 -0.804977 0.615888
1.122179 -0.796290 0.601019
1.102865 -0.777885 0.565522
1.077358 -0.754841 0.513967
1.059904 -0.730121 0.501612
1.024508 -0.726027 0.485895
0.933709 -0.715423 0.460047
0.872987 -0.720774 0.459698
0.811114 -0.694151 0.440472
0.745938 -0.678149 0.412871
0.715774 -0.704612 0.401297
0.651967 -0.678096 0.385115
0.573114 -0.656415 0.372545
0.491980 -0.626796 0.364640
0.417109 -0.606453 0.357608
0.334875 -0.588999 0.350465
0.291794 -0.566648 0.342165
0.321625 -0.606313 0.342822
0.334015 -0.626440 0.346553
0.340713 -0.610652 0.363730
0.317041 -0.590952 0.347119
0.281756 -0.580109 0.342051
0.247225 -0.572990 0.346222
0.212236 -0.550896 0.331469
0.195240 -0.531634 0.337486
0.157840 -0.502221 0.338087
0.123988 -0.505031 0.343100
0.113478 -0.481677 0.349490
0.109199 -0.463829 0.355229
0.081965 -0.464887 0.361987
0.067853 -0.467385 0.371475
0.076422 -0.422290 0.394380
0.058058 -0.356374 0.432412
0.055175 -0.337495 0.444498
0.048210 -0.337105 0.446566
0.045647 -0.339102 0.449458
0.028231 -0.333587 0.452852
0.040286 -0.344459 0.455984
0.039684 -0.340870 0.501109
0.035659 -0.333108 0.573897
0.001862 -0.330818 0.619294
0.000118 -0.363712 0.715914
-0.004815 -0.387346 0.835360
-0.009578 -0.459061 0.910855
0.005066 -0.513607 0.968857
0.005005 -0.533574 1.078389
0.011626 -0.554353 1.157282
0.010909 -0.575779 1.217006
0.003821 -0.607175 1.289509
0.001716 -0.631176 1.281614
0.010684 -0.629480 1.342971
0.008834 -0.664789 1.411152
0.009819 -0.697669 1.482220
-0.006125 -0.719084 1.558410
0.000711 -0.741458 1.618480
-0.013365 -0.765935 1.720761
-0.034571 -0.805971 1.793292
-0.019078 -0.814383 1.843285
-0.002951 -0.816837 1.900624
0.034815 -0.844157 1.934678
0.054986 -0.853048 1.933658
0.100380 -0.888675 1.938384
0.121629 -0.913056 1.936323
0.107571 -0.952909 1.907264
0.071213 -0.972459 1.877447
0.045521 -0.994196 1.882891
0.013322 -1.007125 1.887744
0.016018 -0.991808 1.889759
0.017546 -0.967986 1.902960
-0.035841 -0.964914 1.923891
-0.047646 -0.960789 1.967718
-0.062117 -0.974625 1.973710
-0.062904 -0.955145 1.969386
-0.065728 -0.943762 1.966044
-0.065701 -0.930872 1.963477
-0.064579 -0.936427 1.956568
-0.062076 -0.946109 1.935829
-0.064961 -0.968523 1.904275
-0.078710 -0.990774 1.885789
-0.082074 -1.012585 1.870300
-0.072239 -1.033656 1.848861
-0.059491 -1.060434 1.847997
-0.048331 -1.054361 1.850956
-0.042532 -1.039314 1.845557
-0.017262 -1.023131 1.857225
0.002799 -1.017186 1.854547
0.033958 -1.008590 1.864329
0.061027 -0.990108 1.871610
0.110367 -1.007785 1.870866
0.141704 -1.011257 1.870197
0.144694 -0.992776 1.877405
0.140432 -0.979420 1.880393
0.138851 -0.966545 1.890798
0.073331 -0.921865 1.872106
0.055116 -0.910083 1.856917
0.034124 -0.881583 1.844907
0.026015 -0.873830 1.835315
0.023497 -0.871861 1.822011
-0.003885 -0.870758 1.815876
-0.005587 -0.807039 1.782595
0.002550 -0.772581 1.716337
-0.009852 -0.782621 1.726048
-0.004305 -0.735071 1.626820
-0.009193 -0.694320 1.538139
-0.001124 -0.685032 1.466211
-0.006718 -0.699915 1.398857
-0.013984 -0.638755 1.302183
-0.016144 -0.592762 1.224163
-0.018816 -0.536468 1.113850
-0.021418 -0.496037 1.027035
-0.025142 -0.472075 0.955885
-0.042884 -0.459874 0.914467
-0.034079 -0.437602 0.850901
-0.038983 -0.412640 0.797222
-0.026121 -0.368880 0.731187
-0.022991 -0.348091 0.683470
-0.019468 -0.336209 0.627823
-0.013489 -0.310185 0.575205
-0.021353 -0.317024 0.562116
-0.013141 -0.336894 0.552906
-0.024153 -0.294169 0.560603
-0.027207 -0.272543 0.563769
-0.029173 -0.253790 0.569344
-0.024062 -0.239109 0.568685
-0.005195 -0.238492 0.583708
-0.000827 -0.236784 0.583604
0.001138 -0.229878 0.592700
0.004173 -0.216025 0.586492

